Coordinates
version=1
nRows=8
nColumns=36
inDegrees=yes

Units are S.I. units (second, meters, Newtons, ...)
If the header above contains a line with 'inDegrees', this indicates whether rotational values are in degrees (yes) or radians (no).

endheader
time	pelvis_tilt	pelvis_list	pelvis_rotation	pelvis_tx	pelvis_ty	pelvis_tz	hip_flexion_r	hip_adduction_r	hip_rotation_r	knee_angle_r	knee_angle_r_beta	ankle_angle_r	subtalar_angle_r	mtp_angle_r	hip_flexion_l	hip_adduction_l	hip_rotation_l	knee_angle_l	knee_angle_l_beta	ankle_angle_l	subtalar_angle_l	mtp_angle_l	lumbar_extension	lumbar_bending	lumbar_rotation	arm_flex_r	arm_add_r	arm_rot_r	elbow_flex_r	pro_sup_r	arm_flex_l	arm_add_l	arm_rot_l	elbow_flex_l	pro_sup_l
      0.67000000	      0.37866850	      1.81541679	     -9.92123418	      0.76694123	      0.94035972	     -0.16220396	     -4.99139861	     -4.88641684	      2.55322852	     45.28643698	      0.79039743	     -6.00643176	      8.19212690	     -7.26638931	     21.58639153	      4.65096333	      1.74709713	     20.81101038	      0.36322065	      2.30995820	     -4.99448649	     -7.26638931	     -2.87280931	     -4.86990021	     12.88690550	     17.27256587	     -3.99186521	     10.02435187	     36.50636853	    110.33107534	     -9.38973598	    -11.27845257	     34.66329205	     23.81246159	    111.58469038
      0.68000000	      0.29797995	      2.10585409	     -9.93529729	      0.77889851	      0.94085146	     -0.16335201	     -2.73328818	     -5.46516310	      2.45201828	     49.08162260	      0.85663592	     -7.85482809	      6.60420272	     -7.27308057	     21.16305530	      5.11457574	      1.49748405	     21.30089329	      0.37177072	      3.27656646	     -4.83670361	     -7.27308057	     -2.79609827	     -5.18216746	     12.59569773	     17.25422017	     -3.95224065	      9.91202703	     36.61579632	    110.23461619	     -9.18478741	    -11.45188370	     34.62413561	     24.39766222	    111.72353422
      0.69000000	      0.48828172	      2.51293254	     -9.97350787	      0.79070232	      0.94172628	     -0.16453523	     -0.73789669	     -6.24613526	      2.38539790	     52.72099045	      0.92015487	     -8.48377690	      5.56153695	     -7.27540057	     20.29017358	      5.78792205	      1.35227047	     21.42600640	      0.37395436	      4.14210802	     -4.85143422	     -7.27540057	     -3.04479991	     -5.67832193	     12.26077786	     17.33504942	     -3.94353595	      9.87989221	     36.70057584	    110.20210352	     -8.78833514	    -11.54084838	     34.57820305	     24.64404716	    111.76595017
      0.70000000	      0.42043304	      2.82299496	    -10.02530116	      0.80231131	      0.94235656	     -0.16555305	      1.57399762	     -6.76246437	      2.46108005	     56.23059053	      0.98140895	     -8.35614415	      3.70737392	     -7.27835448	     19.64956970	      6.27677265	      1.14553154	     21.46547429	      0.37464320	      4.97922393	     -4.72310478	     -7.27835448	     -2.94975554	     -6.01361617	     12.02608458	     17.28951892	     -3.97175293	      9.80355197	     36.74941184	    110.14718640	     -8.41400544	    -11.69510609	     34.49784921	     25.08244397	    111.82472508
      0.71000000	      0.28293191	      2.96127159	    -10.05081631	      0.81360793	      0.94308205	     -0.16643593	      3.90679591	     -6.91556845	      2.68224916	     59.38193037	      1.03641020	     -8.01939842	      1.06834061	     -7.28599898	     19.10454727	      6.54237788	      0.87690912	     21.59700753	      0.37693889	      5.88501631	     -4.23173205	     -7.28599898	     -2.84888242	     -6.14828900	     11.74090733	     17.20133769	     -3.96766761	      9.55701976	     36.85423192	    109.99798487	     -8.03222772	    -11.83676460	     34.26806154	     25.64531618	    111.92456309
      0.72000000	      0.36061575	      3.14200885	    -10.09616724	      0.82477646	      0.94426889	     -0.16738839	      5.99403696	     -7.13768211	      2.95919753	     62.21751939	      1.08590057	     -6.93890715	     -0.69086563	     -7.28787764	     18.15339495	      6.97393798	      0.97317301	     21.36274711	      0.37285027	      6.53101676	     -4.16740652	     -7.28787764	     -3.04171886	     -6.38816285	     11.40018880	     17.22598396	     -4.02639449	      9.48942692	     36.89247211	    109.95892097	     -7.46242349	    -11.89912008	     34.20255397	     25.79539771	    111.94363826
      0.73000000	      0.15796332	      3.27213955	    -10.08973357	      0.83597045	      0.94525998	     -0.16831526	      8.31612166	     -7.17649481	      3.16677469	     64.67077995	      1.12871804	     -5.59839674	     -3.17427685	     -7.29066757	     17.46736903	      7.28550624	      0.93303580	     21.04600313	      0.36732205	      7.16995308	     -4.07367947	     -7.29066757	     -2.81561787	     -6.49780709	     11.18192218	     16.98624671	     -4.12823336	      9.32882928	     36.86332424	    109.88089277	     -6.92182944	    -12.00667319	     34.17393202	     26.07444046	    111.98789552
      0.74000000	      0.01911077	      3.25910676	    -10.05211809	      0.84694140	      0.94657230	     -0.16918189	     10.47169707	     -6.95377545	      3.44664699	     66.64535251	      1.16318083	     -4.68950689	     -5.51446042	     -7.29395708	     16.67887235	      7.46395224	      1.02958396	     20.72085998	      0.36164723	      7.70257748	     -3.90874457	     -7.29395708	     -2.74289441	     -6.47743252	     10.87014141	     16.78492049	     -4.21564063	      9.07546522	     36.89066825	    109.77760058	     -6.30250517	    -12.09179102	     34.21757726	     26.26638891	    112.04327025
